<?xml version="1.0" standalone="no"?><!DOCTYPE svg PUBLIC "-//W3C//DTD SVG 1.1//EN" "http://www.w3.org/Graphics/SVG/1.1/DTD/svg11.dtd"><svg t="1630244983155" class="icon" viewBox="0 0 1024 1024" version="1.1" xmlns="http://www.w3.org/2000/svg" p-id="2748" xmlns:xlink="http://www.w3.org/1999/xlink" width="200" height="200"><defs><style type="text/css"></style></defs><path d="M946.614857 186.953143L583.387429 14.921143a170.642286 170.642286 0 0 0-139.410286 0L80.749714 190.171429C29.257143 213.430857 0 259.730286 0 312.685714v393.728c0 52.882286 32.987429 99.254857 80.749714 125.659429l363.227429 175.396571c21.942857 9.947429 47.689143 16.530286 69.705143 16.530286 25.673143 0 47.689143-6.582857 69.705143-16.530286l359.570285-172.032c51.346286-26.477714 84.406857-72.850286 80.749715-125.805714V312.758857c3.657143-52.955429-25.673143-99.254857-77.092572-125.805714z m-465.92-109.202286a63.634286 63.634286 0 0 1 32.987429-9.947428c10.971429 0 22.016 3.364571 32.987428 6.582857l363.300572 172.105143c3.657143 3.291429 10.971429 6.582857 14.628571 9.947428L513.682286 454.948571 102.765714 259.657143c3.657143-3.218286 10.971429-6.582857 14.628572-9.874286l363.300571-172.032z m-363.300571 691.492572c-25.6-13.238857-44.032-36.425143-40.374857-62.902858V325.997714l150.454857 72.777143v158.793143c0 13.165714 7.314286 26.477714 22.016 33.060571l25.673143 13.238858c3.657143 0 3.657143 3.291429 7.314285 3.291428 11.044571 0 18.358857-6.582857 18.358857-16.530286V435.053714L473.307429 517.851429v426.788571l-355.913143-175.323429z m792.576 0l-359.570286 172.032V514.486857l399.945143-188.562286v380.489143c0 26.404571-14.701714 49.590857-40.374857 62.829715z" p-id="2749"></path></svg>