<?xml version="1.0" standalone="no"?><!DOCTYPE svg PUBLIC "-//W3C//DTD SVG 1.1//EN" "http://www.w3.org/Graphics/SVG/1.1/DTD/svg11.dtd"><svg t="1630248136779" class="icon" viewBox="0 0 1024 1024" version="1.1" xmlns="http://www.w3.org/2000/svg" p-id="5503" xmlns:xlink="http://www.w3.org/1999/xlink" width="200" height="200"><defs><style type="text/css"></style></defs><path d="M665.6 449.8944a51.2 51.2 0 0 1 51.2 51.2v460.8a51.2 51.2 0 0 1-51.2 51.2h-51.2a51.2 51.2 0 0 1-51.2-51.2v-460.8a51.2 51.2 0 0 1 51.2-51.2h51.2z m-256 204.8a51.2 51.2 0 0 1 51.2 51.2v256a51.2 51.2 0 0 1-51.2 51.2H358.4a51.2 51.2 0 0 1-51.2-51.2v-256a51.2 51.2 0 0 1 51.2-51.2h51.2z m-256-102.4a51.2 51.2 0 0 1 51.2 51.2v358.4a51.2 51.2 0 0 1-51.2 51.2H102.4a51.2 51.2 0 0 1-51.2-51.2v-358.4a51.2 51.2 0 0 1 51.2-51.2h51.2z m768-256a51.2 51.2 0 0 1 51.2 51.2v614.4a51.2 51.2 0 0 1-51.2 51.2h-51.2a51.2 51.2 0 0 1-51.2-51.2v-614.4a51.2 51.2 0 0 1 51.2-51.2h51.2zM998.4 0l-102.4 237.056L836.352 163.84l-265.5232 215.1936-260.096-28.0064L60.6208 450.048a25.6 25.6 0 0 1-31.1296-10.24l-2.048-4.1472a25.6 25.6 0 0 1 10.24-31.1296l4.096-2.0992 261.888-103.6288 251.904 27.136 248.4736-201.6256L736.768 41.8816 998.4 0z" p-id="5504"></path></svg>